<svg xmlns="http://www.w3.org/2000/svg" xmlns:xlink="http://www.w3.org/1999/xlink" width="100" height="100" viewBox="0 0 100 100"><g><g transform="translate(50 50) scale(0.69 0.69) rotate(0) translate(-50 -50)" style="fill:#000000"><svg fill="#000000" xmlns="http://www.w3.org/2000/svg" xmlns:xlink="http://www.w3.org/1999/xlink" version="1.1" x="0px" y="0px" viewBox="0 0 100 100" enable-background="new 0 0 100 100" xml:space="preserve"><rect x="-238" y="-233" fill="none" width="115" height="106"></rect><path d="M78.51,35.88c-0.05-0.04-0.11-0.07-0.16-0.11c1.1-2.06,1.56-4.49,1.21-6.5c-0.21-1.21-0.7-2.25-1.4-3.08  c0.91-1.66,1.01-3.45,0.66-4.94c-0.83-3.52-4.22-6.27-7.72-6.27c-1.2,0-2.34,0.31-3.36,0.89c-1.36-1.27-3.21-2.05-5.25-2.05  c0,0,0,0,0,0c-0.42,0-0.83,0.04-1.23,0.11c-0.19-0.34-0.4-0.64-0.61-0.89c-1.36-1.66-3.49-2.57-6-2.57c0,0,0,0,0,0  c-1.7,0-3.46,0.43-4.93,1.19c-1.97-2.85-4.66-4.41-7.74-4.41c-1.44,0-2.89,0.36-4.31,1.07c-4.62,2.31-5.78,6.27-5.6,9.73  c-1.89,0.49-3.57,1.78-4.52,3.56c-0.75,1.41-1.01,2.99-0.8,4.61c-2.74,0.87-4.92,2.97-5.32,5.41c-0.24,1.46,0.17,3.21,1.7,4.59  c-0.94,0.97-1.34,2.17-1.02,3.5L28.38,66h0c-3.76,2-5.94,4.94-5.94,8.44c0,0.29,0.02,0.66,0.04,0.92c-1.3,0.91-2.37,2.26-3.01,3.81  c-1.17,2.83-0.63,5.88,1.41,7.93c1.42,1.42,3.5,2.22,5.87,2.22c1.85,0,3.67-0.49,5.28-1.36c0.59,1.51,1.67,2.65,3.15,3.26  c1.65,0.68,3.63,0.63,5.22-0.05c0.78,0.95,2,1.78,3.39,2.2c0.49,0.15,1.22,0.31,2.09,0.31c1.84,0,4.3-0.73,6.38-3.83  c0.25-0.38,0.43-0.81,0.58-1.27l15.96-7.98c1.06-0.53,1.83-1.5,2.1-2.66l9-38C80.25,38.42,79.71,36.85,78.51,35.88z M26,39  l6.42,3.08l5.42,27.08c-1.46-1.59-3.33-2.68-5.41-3.02c0,0,0,0,0,0L26,39z M49.75,88.17c-1.26,1.88-2.83,2.73-4.55,2.45  c-1.53-0.25-2.61-1.31-2.7-1.62c0-0.61-0.37-1.15-0.93-1.39c-0.56-0.23-1.21-0.1-1.63,0.33c-0.67,0.67-2.32,1.04-3.62,0.5  c-1.21-0.5-1.82-1.66-1.82-3.44c0-0.83-0.67-1.5-1.5-1.5s-1.5,0.67-1.5,1.5c0-0.08,0.01-0.17,0.02-0.25  c-1.45,1.06-3.19,1.57-4.78,1.57c-1.5,0-2.87-0.45-3.75-1.33c-2.83-2.83,0-8,4-8c-2.83,0-2-8,4-8c2.14,0,3.98,1.15,5.24,2.91  c-1.75,1.97-2.6,4.44-2.66,4.61c-0.26,0.79,0.16,1.64,0.95,1.9c0.79,0.26,1.64-0.16,1.9-0.95c0.43-1.29,2.19-4.97,4.58-4.97  c2.51,0,3.8,1.24,4.44,2.27c0.99,1.61,1.08,3.84,0.22,5.56c-0.23,0.46-0.21,1.02,0.07,1.46C46,82.23,46.48,82.5,47,82.5  c1.29,0,2.06,0.93,2.48,1.71C50.25,85.66,50.25,87.43,49.75,88.17z M49,75.66c-0.21-0.87-0.54-1.71-1.01-2.47  c-0.95-1.54-2.32-2.62-3.99-3.2l-1.94-23.28L49,50.04V75.66z M57,82l-4,2V50.04l6.94-3.33L57,82z M67,77l-4.88,2.44L70,42l-1.5,0.6  L76,39L67,77z M75.24,35.08c-0.33,0.06-0.66,0.16-0.97,0.31l-11.12,5.34L51,45.33L27,35c-5.35-1.78-1.56-6.21,2.51-6.21  c0.5,0,1,0.07,1.49,0.21c-3.13-4.7-0.13-8.17,2.74-8.17c0.79,0,1.58,0.27,2.22,0.84c0,0-3.41-7.45,3.04-10.67  c1-0.5,2-0.75,2.97-0.75c2.91,0,5.53,2.25,7.03,6.75c0-2.01,2.92-3.53,5.63-3.53c2.69,0,5.17,1.5,4.37,5.53  c0.76-1.53,2.11-2.18,3.49-2.18c2.22,0,4.51,1.71,4.51,4.18c1.09-2.17,2.61-3.02,4.1-3.02c4,0,7.73,6.1,1.9,9.02  C77.61,27,77.29,32.11,75.24,35.08z M66.38,26.93c-1.83-0.69-3.81-0.55-5.63,0.34c-0.33-2.47-1.85-4.04-3.51-4.75  c-1.72-0.74-3.68-0.68-5.24,0.01c-1.24-3.18-4.51-5.04-7-5.04c-3.07,0-7.5,2.67-7.5,7.5c0,0.24,0.06,0.47,0.17,0.67  c-2.39,0.6-4.17,2.76-4.17,5.33c0,0.83,0.67,1.5,1.5,1.5s1.5-0.67,1.5-1.5c0-1.38,1.12-2.5,2.5-2.5s2.5,1.12,2.5,2.5  c0,0.11-0.02,0.21-0.04,0.38c-0.08,0.57,0.17,1.14,0.66,1.46c0.48,0.32,1.11,0.33,1.6,0.03c0.41-0.25,0.84-0.37,1.28-0.37  c1.38,0,2.5,1.12,2.5,2.5c0,0.83,0.67,1.5,1.5,1.5s1.5-0.67,1.5-1.5c0-3.03-2.47-5.5-5.5-5.5c-0.23,0-0.46,0.02-0.69,0.05  c-0.52-1.91-2.05-3.38-3.98-3.86c0.11-0.21,0.17-0.43,0.17-0.68c0-3.21,3.18-4.5,4.5-4.5c1.53,0,4.5,1.68,4.5,4.75  c0,0.67,0.45,1.26,1.09,1.44c0.65,0.18,1.33-0.09,1.69-0.66c0.61-0.98,2.41-1.34,3.78-0.75c1.61,0.69,2.14,2.41,1.49,4.83  c-0.18,0.67,0.13,1.38,0.74,1.71c0.61,0.33,1.37,0.19,1.83-0.32c1.83-2.06,3.88-2.26,5.2-1.76c1.37,0.52,2.18,1.83,2.18,3.51  c0,0.83,0.67,1.5,1.5,1.5s1.5-0.67,1.5-1.5C70.5,30.32,68.92,27.9,66.38,26.93z"></path></svg></g></g></svg>